<?xml version="1.0" standalone="no"?>
<!DOCTYPE svg PUBLIC "-//W3C//DTD SVG 20010904//EN"
 "http://www.w3.org/TR/2001/REC-SVG-20010904/DTD/svg10.dtd">
<svg version="1.0" xmlns="http://www.w3.org/2000/svg"
 width="1080.000000pt" height="1080.000000pt" viewBox="0 0 1080.000000 1080.000000"
 preserveAspectRatio="xMidYMid meet">

<g transform="translate(0.000000,1080.000000) scale(0.100000,-0.100000)"
fill="#000000" stroke="none">
<path d="M5140 10793 c-995 -52 -1910 -353 -2725 -896 -315 -210 -559 -409
-825 -676 -446 -447 -769 -900 -1046 -1466 -292 -598 -463 -1216 -526 -1900
-16 -182 -16 -728 0 -910 63 -682 232 -1297 521 -1891 432 -886 1070 -1616
1891 -2161 739 -490 1593 -788 2505 -874 174 -17 713 -17 895 -1 948 84 1781
373 2550 885 1021 680 1778 1674 2155 2831 122 374 195 729 241 1161 25 227
25 766 1 1000 -94 912 -375 1719 -852 2445 -952 1448 -2493 2346 -4205 2450
-150 9 -442 11 -580 3z m600 -383 c379 -27 725 -89 1086 -195 1341 -396 2474
-1356 3089 -2620 268 -551 416 -1082 487 -1740 17 -160 17 -772 0 -920 -43
-366 -89 -614 -167 -890 -240 -851 -688 -1605 -1326 -2230 -745 -730 -1660
-1195 -2694 -1370 -421 -71 -945 -84 -1390 -34 -1001 113 -1964 540 -2730
1210 -126 110 -405 393 -517 524 -273 321 -501 669 -693 1060 -253 516 -402
1028 -477 1640 -30 243 -32 833 -5 1075 95 839 358 1564 822 2266 529 799
1316 1453 2200 1829 484 206 1025 343 1515 385 69 5 141 12 160 14 84 7 508 5
640 -4z"/>
<path d="M4855 10221 c-71 -5 -80 -8 -83 -27 -2 -13 6 -25 23 -34 14 -7 28
-23 30 -34 5 -23 25 -474 25 -573 0 -57 -3 -64 -32 -92 -29 -27 -31 -32 -18
-46 23 -22 443 -4 552 24 190 49 291 149 318 314 22 138 -21 277 -110 361
-100 93 -189 117 -440 114 -102 -1 -221 -4 -265 -7z m392 -73 c49 -14 107 -87
129 -160 23 -79 26 -282 5 -343 -31 -94 -91 -145 -187 -160 -29 -4 -44 -2 -52
8 -8 9 -16 122 -23 332 -11 299 -11 319 5 331 18 13 65 10 123 -8z"/>
<path d="M6146 10221 c-4 -5 -2 -28 3 -51 l9 -41 -185 -292 c-102 -161 -193
-300 -202 -310 -10 -10 -33 -25 -52 -35 -22 -11 -34 -24 -34 -37 0 -17 11 -22
65 -32 89 -17 119 -16 127 2 3 9 -2 24 -12 35 -20 22 -15 42 28 111 20 34 35
48 46 45 9 -3 81 -17 161 -32 80 -14 148 -28 151 -30 4 -2 10 -25 14 -50 3
-26 9 -53 12 -60 3 -8 -9 -27 -27 -44 -57 -53 -46 -60 150 -97 96 -18 189 -34
205 -35 17 -1 63 -17 104 -36 97 -43 122 -34 87 34 -18 34 -23 22 118 299
l106 210 -5 -65 c-3 -36 -12 -181 -21 -323 -18 -293 -19 -286 59 -309 l40 -12
224 230 c124 126 222 222 220 214 -16 -52 -171 -439 -183 -457 -8 -13 -24 -23
-37 -23 -31 0 -50 -14 -45 -36 2 -13 51 -40 163 -90 87 -39 161 -77 163 -84 6
-17 560 -430 577 -430 15 0 105 74 123 102 28 42 -14 66 -78 43 -82 -29 -114
-20 -232 68 -43 33 -68 59 -68 71 0 20 164 246 179 246 14 0 100 -70 112 -91
6 -11 10 -37 9 -57 -3 -57 -1 -62 20 -62 45 0 150 129 150 185 0 26 -2 27 -32
21 -95 -20 -101 -19 -160 20 -32 21 -58 41 -58 45 0 17 163 219 177 219 25 0
161 -106 178 -140 8 -16 15 -55 15 -89 0 -57 15 -91 40 -91 15 0 47 48 70 105
19 47 20 57 9 72 -31 37 -531 404 -547 401 -14 -3 -17 -15 -17 -58 l0 -55
-188 -247 c-155 -204 -192 -248 -212 -248 -26 0 -56 43 -54 77 0 10 53 149
117 308 116 288 117 290 152 301 22 7 36 19 38 31 2 17 -20 30 -135 82 -76 33
-142 61 -148 61 -5 0 -90 -80 -188 -177 -152 -151 -178 -173 -173 -148 9 54
17 470 9 482 -5 6 -74 41 -153 77 -126 57 -147 63 -159 51 -13 -12 -12 -19 5
-50 l19 -35 -145 -290 c-124 -248 -149 -292 -170 -296 -14 -3 -30 -7 -36 -9
-13 -4 -48 31 -56 55 -3 8 -38 182 -78 385 -39 204 -78 380 -85 391 -11 17
-41 28 -132 49 -65 15 -123 30 -129 32 -7 2 -15 0 -18 -6z m64 -399 c17 -101
30 -186 27 -188 -4 -5 -219 30 -259 42 -17 5 -16 7 159 283 19 29 36 52 37 50
2 -2 18 -86 36 -187z"/>
<path d="M4162 10100 c-92 -24 -165 -63 -218 -116 -51 -50 -68 -98 -62 -175 5
-71 39 -120 114 -161 65 -36 120 -52 294 -83 158 -28 227 -55 250 -97 13 -25
13 -31 0 -55 -24 -43 -76 -68 -145 -68 -75 0 -110 17 -204 100 -85 75 -121 87
-178 59 -49 -25 -62 -60 -43 -117 33 -93 169 -140 344 -118 265 34 429 154
429 312 0 133 -104 206 -348 244 -257 41 -308 57 -332 104 -6 14 -8 33 -4 45
19 52 126 89 193 67 19 -6 61 -34 94 -62 77 -65 110 -82 162 -82 77 0 114 62
77 133 -9 18 -36 39 -72 57 -52 25 -70 28 -168 30 -83 2 -128 -2 -183 -17z"/>
<path d="M3282 9771 c-172 -81 -321 -155 -330 -164 -15 -16 -15 -22 3 -95 19
-75 21 -77 50 -77 27 0 31 4 39 40 18 87 31 109 80 143 27 17 51 32 55 32 8 0
275 -573 279 -599 2 -11 -4 -31 -13 -44 -17 -26 -11 -57 10 -57 8 0 89 36 180
80 132 63 166 83 161 96 -3 8 -6 18 -6 20 0 2 -9 4 -19 4 -41 0 -72 50 -200
326 -72 155 -131 285 -131 288 0 13 70 36 110 36 25 0 58 -10 90 -27 39 -22
53 -26 67 -17 30 19 26 38 -22 102 -33 45 -51 62 -67 61 -13 0 -164 -67 -336
-148z"/>
<path d="M2610 9359 c-136 -26 -303 -156 -367 -285 -33 -67 -37 -83 -37 -152
1 -96 25 -168 88 -256 119 -167 274 -229 443 -178 137 42 280 161 337 281 28
59 31 76 31 157 0 84 -2 95 -38 167 -66 134 -174 231 -292 262 -65 16 -97 17
-165 4z m-48 -164 c106 -44 290 -228 353 -352 73 -147 -32 -261 -178 -193
-125 59 -325 279 -356 393 -17 59 -8 92 34 134 38 38 86 44 147 18z"/>
<path d="M8808 8890 c-12 -8 -15 -19 -11 -48 l5 -39 -238 -209 -237 -209 -48
2 c-52 2 -71 -16 -46 -46 126 -149 233 -261 246 -259 11 2 18 18 22 47 6 46 5
45 140 161 43 37 47 38 61 22 50 -56 47 -103 -12 -230 -40 -84 -40 -85 -72
-80 -88 14 -78 -10 74 -183 100 -114 137 -149 152 -147 18 3 21 9 18 48 -2 35
6 66 38 138 49 113 61 163 50 203 -5 17 -6 29 -2 27 115 -61 195 -72 256 -36
49 29 75 63 87 116 19 84 -28 214 -124 341 -44 58 -334 392 -340 391 -1 0 -9
-5 -19 -10z m239 -342 c46 -65 63 -103 63 -143 0 -86 -75 -165 -157 -165 -24
0 -58 7 -76 16 -38 19 -127 103 -127 120 0 18 228 214 249 214 10 0 31 -19 48
-42z"/>
<path d="M1905 8714 c-60 -19 -162 -86 -232 -151 -92 -87 -325 -362 -321 -381
3 -14 13 -16 49 -14 l45 3 219 -192 c282 -245 260 -222 260 -272 0 -34 4 -43
20 -45 26 -3 258 259 253 286 -3 13 -14 17 -48 17 -39 0 -52 6 -98 45 -28 25
-52 48 -52 51 0 4 25 37 55 74 117 142 170 263 163 374 -3 58 -9 78 -34 113
-63 89 -173 126 -279 92z m-2 -210 c16 -9 51 -37 77 -63 57 -57 77 -117 61
-178 -16 -59 -73 -138 -99 -138 -21 0 -304 236 -316 263 -12 26 82 114 141
132 35 12 96 4 136 -16z"/>
<path d="M6443 7380 c-61 -37 -82 -124 -44 -187 12 -18 50 -49 93 -74 95 -55
141 -100 170 -163 l23 -51 0 -1510 0 -1510 -22 -45 c-30 -60 -83 -110 -168
-158 -83 -46 -115 -87 -115 -147 0 -48 31 -102 70 -122 20 -10 213 -12 905
-10 830 2 882 3 907 20 32 22 58 74 58 117 0 54 -26 88 -113 143 -83 54 -122
97 -152 169 -13 33 -15 208 -15 1546 0 1118 3 1518 12 1543 23 68 68 120 154
175 50 32 90 66 99 83 31 61 9 146 -47 181 -32 20 -48 20 -908 20 -850 0 -876
-1 -907 -20z m1251 -283 c38 -50 73 -132 98 -232 19 -77 23 -114 22 -260 -2
-329 -55 -464 -267 -680 l-118 -120 21 -155 c11 -85 22 -164 25 -176 4 -17 16
-21 88 -30 234 -29 377 -186 403 -442 20 -212 -87 -408 -273 -498 -43 -21 -79
-39 -80 -39 -2 -1 11 -102 28 -226 33 -244 33 -300 -1 -393 -56 -148 -232
-236 -415 -208 -127 20 -212 79 -262 180 -23 47 -28 70 -28 132 0 91 27 148
93 195 38 26 53 30 106 30 52 0 70 -5 103 -28 46 -32 78 -84 88 -145 19 -116
-64 -212 -183 -212 -34 0 -35 0 -17 -20 26 -29 118 -60 179 -60 168 0 272 99
292 280 3 35 -4 122 -20 243 -14 103 -26 194 -26 202 0 11 -16 13 -88 8 -116
-8 -215 14 -335 75 -76 37 -108 61 -182 136 -74 74 -99 107 -132 176 -59 122
-77 202 -77 340 0 92 4 130 23 190 63 203 185 367 434 584 76 66 137 127 137
135 0 9 -7 63 -15 121 -31 223 -15 444 42 603 59 168 166 314 244 335 41 11
60 3 93 -41z"/>
<path d="M7588 6820 c-71 -38 -146 -162 -190 -315 -19 -65 -23 -104 -23 -210
0 -71 4 -143 8 -159 l8 -29 85 84 c175 173 264 342 264 507 0 72 -17 113 -55
130 -35 16 -53 15 -97 -8z"/>
<path d="M7244 5645 c-186 -167 -270 -268 -323 -388 -102 -227 -66 -445 99
-601 81 -76 188 -132 281 -148 62 -11 203 -4 225 10 8 5 -3 115 -33 342 -25
184 -47 337 -49 339 -2 2 -23 -1 -46 -8 -58 -17 -139 -101 -161 -166 -24 -69
-21 -140 7 -200 23 -51 69 -98 106 -110 29 -9 25 -35 -5 -35 -65 0 -157 76
-200 165 -82 166 -38 357 111 496 27 25 75 56 107 69 41 17 56 28 53 39 -3 9
-12 77 -22 151 -9 74 -20 139 -24 143 -4 5 -61 -39 -126 -98z"/>
<path d="M7514 5174 c4 -22 24 -171 46 -333 22 -162 41 -296 44 -298 8 -8 73
28 114 63 23 19 53 60 69 92 26 52 28 67 28 167 0 95 -3 117 -23 157 -46 92
-143 167 -241 183 l-43 7 6 -38z"/>
<path d="M2323 7364 c-43 -21 -78 -92 -69 -138 9 -50 39 -81 114 -122 87 -48
139 -97 168 -159 l24 -50 0 -1506 c0 -1665 4 -1555 -64 -1635 -19 -22 -66 -57
-106 -79 -129 -71 -160 -123 -121 -209 38 -88 -41 -81 961 -81 829 0 888 1
913 18 52 34 74 113 48 174 -8 19 -40 48 -91 82 -44 29 -95 70 -114 93 -63 74
-66 92 -66 473 l0 342 323 6 c768 15 1293 120 1717 343 463 245 706 646 675
1117 -13 209 -60 368 -158 532 -71 121 -244 297 -383 388 -254 168 -629 301
-1020 362 -384 59 -355 58 -1584 62 -1030 3 -1138 2 -1167 -13z m1998 -324
c207 -21 403 -78 539 -157 95 -55 246 -210 292 -299 90 -172 128 -355 128
-619 0 -245 -28 -389 -104 -550 -56 -118 -120 -201 -214 -276 -177 -143 -422
-217 -779 -235 -123 -7 -133 -6 -178 16 -37 18 -52 32 -66 66 -19 41 -19 79
-17 1003 3 956 3 960 24 988 44 59 78 73 179 73 51 0 139 -5 196 -10z"/>
<path d="M9473 5752 c-9 -6 -18 -126 -14 -179 2 -23 36 -14 62 16 l25 29 230
-5 c126 -3 233 -6 238 -7 5 -1 -109 -82 -255 -180 -145 -98 -274 -188 -286
-200 -20 -19 -22 -35 -29 -181 -6 -145 -5 -162 11 -175 15 -13 20 -11 44 19
l28 34 323 -5 323 -5 27 -33 c41 -51 56 -37 64 60 5 57 3 86 -5 96 -17 20 -28
17 -59 -15 l-27 -30 -269 6 c-148 3 -271 7 -272 9 -2 1 138 98 313 214 174
116 319 218 323 228 4 9 7 78 7 152 0 120 -2 135 -17 138 -10 2 -28 -8 -40
-23 l-23 -26 -265 1 c-327 0 -385 5 -408 34 -22 29 -36 36 -49 28z"/>
<path d="M547 5705 c-15 -14 -17 -42 -17 -201 0 -166 2 -184 17 -184 9 0 29
12 44 26 l28 26 317 -7 318 -7 27 -29 c26 -28 53 -37 62 -21 3 4 6 90 8 192 4
177 3 185 -16 188 -12 3 -27 -6 -41 -23 l-22 -28 -129 1 c-70 1 -215 5 -322 8
l-195 7 -31 34 c-30 32 -33 34 -48 18z"/>
<path d="M1290 5267 c-56 -70 -28 -62 -368 -108 l-313 -42 -29 28 c-19 18 -35
25 -46 21 -14 -5 -16 -16 -10 -77 12 -119 38 -152 70 -90 9 16 23 32 33 35 24
9 513 78 525 74 5 -2 -117 -120 -271 -262 -233 -213 -281 -262 -281 -284 0
-59 33 -258 45 -271 14 -14 21 -9 58 43 12 16 61 26 328 62 340 47 310 47 375
0 8 -6 17 -6 26 2 21 17 0 171 -26 186 -14 9 -20 7 -30 -8 -35 -58 -29 -56
-274 -90 -128 -18 -231 -29 -230 -26 2 4 111 107 243 229 132 123 244 231 249
241 5 11 0 78 -13 172 -12 84 -21 156 -21 160 0 13 -30 17 -40 5z"/>
<path d="M9437 4816 c-15 -16 -160 -663 -151 -677 3 -5 1 -9 -4 -9 -18 0 -307
-673 -299 -694 8 -20 96 -84 126 -92 17 -5 28 -2 37 10 14 20 10 37 -23 86
-15 23 -23 49 -23 78 0 52 25 116 42 109 41 -16 529 -228 561 -243 29 -14 40
-26 48 -57 8 -31 14 -38 32 -35 17 2 35 35 93 170 61 142 70 170 59 184 -12
17 -14 17 -38 1 -15 -9 -34 -17 -42 -17 -15 0 -521 212 -588 247 l-28 14 28
50 c29 55 58 75 121 85 45 7 78 35 69 58 -5 13 -38 27 -101 41 -27 6 -28 7
-11 25 10 11 30 20 44 20 31 0 567 -116 598 -130 12 -5 29 -23 38 -40 19 -36
52 -41 60 -7 78 338 143 662 135 677 -12 22 -124 72 -153 68 -37 -5 -32 -41
12 -92 22 -25 43 -62 47 -81 7 -40 -29 -223 -48 -241 -10 -10 -44 -6 -161 19
l-148 32 6 40 c4 22 16 60 28 85 18 37 29 47 62 56 54 15 54 41 0 71 -44 24
-141 43 -180 35 -33 -6 -33 -38 0 -64 14 -10 28 -34 33 -51 8 -31 -4 -135 -17
-149 -10 -10 -263 49 -272 64 -5 7 -7 20 -5 28 2 8 12 47 21 86 23 99 44 129
112 162 62 29 78 56 47 79 -25 18 -148 17 -167 -1z"/>
<path d="M1224 4321 c-99 -45 -137 -141 -160 -396 -17 -196 -26 -238 -59 -271
-30 -30 -54 -30 -90 -2 -88 69 -84 209 9 322 66 81 81 138 51 195 -8 16 -28
34 -44 41 -27 11 -36 9 -78 -11 -55 -28 -78 -67 -94 -157 -26 -145 55 -397
164 -510 99 -103 256 -107 332 -8 47 61 65 143 80 357 16 219 30 275 73 286
41 10 75 -9 101 -55 34 -64 32 -129 -7 -190 -83 -127 -87 -136 -87 -190 0 -46
4 -57 28 -78 73 -62 158 8 177 147 9 65 -3 177 -27 248 -76 227 -225 337 -369
272z"/>
<path d="M1628 3612 c-105 -38 -103 -80 5 -98 36 -6 77 -18 90 -27 24 -15 73
-84 66 -92 -2 -1 -130 -78 -284 -170 -210 -125 -286 -165 -302 -161 -13 3 -34
9 -48 12 -17 4 -27 2 -30 -8 -6 -15 167 -315 189 -330 19 -13 30 -3 37 31 4
19 15 41 25 51 23 22 540 330 554 330 16 0 50 -77 50 -115 0 -20 -9 -54 -21
-77 -41 -81 -1 -115 71 -58 46 36 50 37 50 5 0 -18 -46 -67 -202 -213 -273
-255 -262 -246 -317 -247 -36 0 -46 -4 -46 -16 0 -9 54 -75 120 -145 134 -144
158 -157 163 -87 3 37 11 49 87 122 47 45 89 81 95 81 6 0 20 -15 31 -32 29
-48 20 -118 -28 -215 -38 -78 -38 -78 -78 -78 -78 0 -67 -17 167 -262 79 -82
104 -88 94 -21 -5 31 2 60 40 156 37 97 45 126 42 170 -3 49 3 64 17 43 10
-18 108 -44 158 -42 93 2 166 78 167 174 0 60 -37 155 -96 243 -45 69 -273
329 -362 415 -15 14 -29 34 -30 44 -2 10 -86 156 -186 324 -203 343 -189 328
-288 293z m702 -979 c72 -82 87 -162 43 -230 -50 -77 -135 -103 -211 -64 -55
28 -126 105 -116 124 18 30 217 207 234 207 10 0 32 -17 50 -37z"/>
<path d="M8911 3260 c-153 -72 -302 -295 -301 -449 1 -127 114 -224 239 -206
58 8 180 65 291 135 101 63 197 110 226 110 12 0 33 -9 48 -21 43 -34 34 -97
-25 -163 -52 -60 -79 -69 -221 -76 -123 -5 -128 -6 -157 -34 -37 -36 -47 -75
-27 -113 20 -39 59 -58 120 -57 176 1 427 302 428 513 1 72 -15 115 -61 164
-39 42 -74 57 -135 57 -89 0 -194 -48 -379 -172 -126 -86 -211 -109 -241 -66
-21 30 -20 61 3 106 40 78 86 102 194 102 40 0 90 5 112 11 52 15 105 68 105
106 -1 84 -102 108 -219 53z"/>
<path d="M8338 2599 c-140 -149 -152 -176 -78 -171 l45 3 233 -222 234 -223
-6 -37 c-4 -27 -2 -40 11 -50 14 -12 31 1 145 121 143 150 156 177 81 172
l-42 -3 -226 216 c-124 120 -230 225 -235 234 -5 10 -6 28 -3 39 5 21 -11 52
-27 52 -5 0 -64 -59 -132 -131z"/>
<path d="M2725 2280 c-3 -6 -1 -26 6 -45 13 -34 11 -37 -40 -112 -225 -328
-239 -350 -250 -405 -23 -109 14 -194 133 -305 103 -96 197 -145 292 -151 135
-9 178 27 373 308 123 178 130 185 162 185 26 0 37 -6 48 -27 15 -26 11 -37
-108 -315 -68 -158 -128 -292 -133 -298 -5 -5 -23 -15 -41 -21 -57 -19 -42
-44 47 -81 70 -30 81 -32 94 -19 13 13 13 18 -1 40 -10 14 -17 33 -17 43 0 17
195 481 206 493 3 2 2 -135 -2 -306 -4 -171 -4 -322 -1 -337 5 -18 19 -30 51
-42 24 -9 52 -14 63 -10 10 3 109 112 221 241 111 129 202 231 202 227 0 -22
-155 -470 -167 -484 -8 -9 -28 -19 -44 -23 -24 -5 -30 -10 -27 -28 2 -19 28
-32 163 -85 88 -35 168 -63 177 -63 27 0 32 19 13 54 l-18 33 104 309 104 309
35 11 c45 15 70 -4 70 -53 0 -30 -71 -514 -86 -586 -4 -19 -18 -36 -40 -49
-39 -23 -44 -45 -11 -57 36 -13 643 -103 674 -99 24 3 31 12 55 73 32 83 32
80 12 99 -23 23 -28 21 -89 -34 -51 -46 -59 -50 -105 -50 -61 0 -192 19 -211
31 -12 7 -10 32 9 160 12 84 23 154 25 155 8 8 142 -28 158 -42 10 -9 23 -32
29 -50 22 -67 63 -30 86 75 16 77 11 136 -12 145 -8 3 -31 -12 -55 -36 l-40
-41 -76 7 c-42 3 -78 7 -79 9 -7 7 39 263 50 274 9 10 29 10 96 -1 132 -22
150 -33 193 -117 23 -47 48 -59 74 -38 13 11 14 28 10 88 -3 41 -12 80 -19 87
-11 11 -548 99 -668 109 -25 2 -100 26 -168 53 -68 28 -132 48 -141 45 -10 -2
-89 -86 -177 -185 l-159 -181 -5 251 c-3 148 -9 255 -15 260 -5 5 -76 35 -157
67 -82 31 -151 61 -154 66 -13 22 -127 90 -141 85 -15 -6 -14 -35 2 -77 3 -10
-37 -78 -114 -189 -158 -228 -182 -257 -249 -288 -50 -23 -59 -24 -106 -13
-64 15 -137 68 -161 116 -23 51 -15 121 23 189 36 63 261 388 276 398 6 4 23
8 37 8 34 0 56 24 40 44 -20 24 -289 206 -305 206 -8 0 -18 -5 -21 -10z"/>
<path d="M7755 2089 c-77 -61 -142 -115 -143 -120 -6 -16 18 -38 34 -32 40 15
66 -10 259 -259 171 -219 195 -255 189 -277 -11 -43 -10 -53 7 -63 24 -16 533
383 537 421 3 30 -45 130 -69 145 -35 21 -49 1 -49 -72 0 -55 -5 -76 -23 -103
-32 -47 -138 -130 -162 -127 -12 2 -93 96 -212 248 -181 230 -193 247 -192
285 2 59 1 65 -18 64 -10 0 -81 -50 -158 -110z"/>
<path d="M7158 1779 c-65 -28 -118 -56 -118 -62 0 -6 14 -26 31 -43 l31 -32
28 -354 c28 -350 28 -353 9 -394 -40 -84 -18 -94 91 -39 51 26 70 41 70 55 0
13 -9 22 -25 26 -35 9 -42 21 -50 96 l-6 67 152 76 152 77 51 -51 c48 -49 50
-52 39 -82 -13 -34 -8 -59 13 -59 19 0 357 169 366 183 12 20 -3 35 -43 41
-26 4 -54 19 -82 44 -417 378 -560 502 -574 502 -10 0 -71 -24 -135 -51z m229
-401 l83 -78 -120 -60 c-66 -33 -124 -60 -128 -60 -5 0 -14 69 -21 153 -6 83
-14 172 -18 197 l-6 45 64 -60 c35 -32 101 -94 146 -137z"/>
<path d="M6393 1460 c-188 -48 -347 -91 -354 -96 -7 -4 -38 -6 -70 -5 -72 3
-129 -8 -136 -25 -3 -7 11 -28 30 -46 l34 -33 7 -205 c4 -113 9 -218 13 -234
3 -19 1 -26 -5 -22 -6 4 -99 121 -207 261 -108 141 -206 261 -218 269 -18 11
-52 12 -174 6 -83 -4 -156 -11 -162 -14 -19 -12 -12 -30 20 -57 l32 -26 13
-274 c19 -389 20 -362 -18 -398 -30 -28 -31 -32 -17 -46 14 -14 29 -15 100 -8
74 7 84 10 87 29 2 13 -6 25 -22 33 -14 8 -27 19 -30 26 -6 17 -30 519 -25
534 2 6 107 -124 233 -289 159 -208 237 -302 254 -307 37 -9 285 10 289 23 2
6 -12 26 -30 45 l-34 35 -6 129 c-4 72 -10 214 -13 317 -7 175 -6 189 12 209
17 19 19 19 25 2 4 -10 8 -37 8 -59 2 -83 65 -78 90 6 7 23 23 52 35 65 22 22
112 62 121 53 5 -4 165 -626 165 -640 0 -3 -12 -21 -26 -38 -24 -28 -25 -33
-12 -46 15 -15 74 -3 341 67 44 12 52 44 13 59 -14 5 -32 19 -40 32 -17 26
-170 628 -161 636 2 3 25 8 49 12 56 8 104 -7 152 -49 38 -34 60 -37 77 -9 18
27 -56 170 -86 167 -7 -1 -166 -41 -354 -89z"/>
</g>
</svg>
